<?xml version="1.0" standalone="no"?><!DOCTYPE svg PUBLIC "-//W3C//DTD SVG 1.1//EN" "http://www.w3.org/Graphics/SVG/1.1/DTD/svg11.dtd"><svg t="1627032192439" class="icon" viewBox="0 0 1181 1024" version="1.1" xmlns="http://www.w3.org/2000/svg" p-id="136441" width="18" height="17" xmlns:xlink="http://www.w3.org/1999/xlink"><defs><style type="text/css"></style></defs><path d="M1142.154 0H39.384C7.996 0 0 8.27 0 39.385v945.23C0 1015.73 7.995 1024 39.385 1024h1102.769c31.39 0 39.384-8.27 39.384-39.385V39.385c0-31.114-7.995-39.385-39.384-39.385zM354.462 945.23L77.47 948.5V749.568l276.992-1.26V945.23z m0-275.692H78.769V472.615h275.693v196.923z m0-275.692H78.769V236.308h275.693v157.538z m393.846 551.385H433.23V748.308h315.077V945.23z m0-275.693H433.23V472.615h315.077v196.923z m0-275.692H433.23V236.308h315.077v157.538z m354.461 551.385H827.077V748.308h275.692V945.23z m0-275.693H827.077V472.615h275.692v196.923z m0-275.692H827.077V236.308h275.692v157.538z" fill="#666666" p-id="136442"></path></svg>