<?xml version="1.0" standalone="no"?><!DOCTYPE svg PUBLIC "-//W3C//DTD SVG 1.1//EN" "http://www.w3.org/Graphics/SVG/1.1/DTD/svg11.dtd"><svg t="1627035438731" class="icon" viewBox="0 0 1024 1024" version="1.1" xmlns="http://www.w3.org/2000/svg" p-id="169142" width="18" height="18" xmlns:xlink="http://www.w3.org/1999/xlink"><defs><style type="text/css">@font-face { font-family: feedback-iconfont; src: url("//at.alicdn.com/t/font_1031158_1uhr8ri0pk5.eot?#iefix") format("embedded-opentype"), url("//at.alicdn.com/t/font_1031158_1uhr8ri0pk5.woff2") format("woff2"), url("//at.alicdn.com/t/font_1031158_1uhr8ri0pk5.woff") format("woff"), url("//at.alicdn.com/t/font_1031158_1uhr8ri0pk5.ttf") format("truetype"), url("//at.alicdn.com/t/font_1031158_1uhr8ri0pk5.svg#iconfont") format("svg"); }
</style></defs><path d="M421.49033 512 285.726123 647.764214C260.795221 672.69511 260.732279 713.280616 285.725833 738.274169 310.668527 763.216867 351.242069 763.267596 376.235793 738.273881L512 602.509669 647.764207 738.273881C672.695108 763.204779 713.280614 763.267724 738.274167 738.274169 763.216862 713.331471 763.267601 672.757927 738.273877 647.764214L602.50967 512 738.273877 376.235786C763.204779 351.30489 763.267721 310.719384 738.274167 285.725831 713.331473 260.783133 672.757931 260.732404 647.764207 285.726119L512 421.490331 376.235793 285.726119C351.304892 260.795221 310.719386 260.732276 285.725833 285.725831 260.783138 310.668529 260.732399 351.242073 285.726123 376.235786L421.49033 512ZM512 1024C229.248 1024 0 794.752 0 512 0 229.248 229.248 0 512 0 794.752 0 1024 229.248 1024 512 1024 794.752 794.752 1024 512 1024ZM512 106.666667C288.18845 106.666667 106.666667 288.188445 106.666667 512 106.666667 735.811555 288.18845 917.333333 512 917.333333 735.879117 917.333333 917.333333 735.811555 917.333333 512 917.333333 288.188445 735.879117 106.666667 512 106.666667Z" p-id="169143" fill="#666666"></path></svg>