<?xml version="1.0" standalone="no"?><!DOCTYPE svg PUBLIC "-//W3C//DTD SVG 1.1//EN" "http://www.w3.org/Graphics/SVG/1.1/DTD/svg11.dtd"><svg t="1627035290349" class="icon" viewBox="0 0 1228 1024" version="1.1" xmlns="http://www.w3.org/2000/svg" p-id="164088" width="16" height="13.36" xmlns:xlink="http://www.w3.org/1999/xlink"><defs><style type="text/css">@font-face { font-family: feedback-iconfont; src: url("//at.alicdn.com/t/font_1031158_1uhr8ri0pk5.eot?#iefix") format("embedded-opentype"), url("//at.alicdn.com/t/font_1031158_1uhr8ri0pk5.woff2") format("woff2"), url("//at.alicdn.com/t/font_1031158_1uhr8ri0pk5.woff") format("woff"), url("//at.alicdn.com/t/font_1031158_1uhr8ri0pk5.ttf") format("truetype"), url("//at.alicdn.com/t/font_1031158_1uhr8ri0pk5.svg#iconfont") format("svg"); }
</style></defs><path d="M17.408 1024a585.1136 585.1136 0 0 1 543.232-419.328c31.744-0.512 61.952 0 90.112 2.048v239.104a11.6224 11.6224 0 0 0-0.512 2.048 10.7008 10.7008 0 0 0 10.24 10.752 10.5472 10.5472 0 0 0 8.704-5.12v1.024l552.448-410.112h-3.072a10.24 10.24 0 0 0 10.24-10.24 10.752 10.752 0 0 0-5.632-9.728L669.184 13.824v1.024a10.5472 10.5472 0 0 0-8.704-5.12 10.24 10.24 0 0 0-9.728 10.24v233.984c-25.088-1.024-51.712-1.536-79.872-1.024C255.488 258.56 0 539.136 0 873.984A660.736 660.736 0 0 0 17.408 1024zM650.752 0v0.512h0.512z m0 867.84l0.512-0.512h-0.512v0.512z m0 0" p-id="164089" fill="#333333"></path></svg>