<?xml version="1.0" standalone="no"?><!DOCTYPE svg PUBLIC "-//W3C//DTD SVG 1.1//EN" "http://www.w3.org/Graphics/SVG/1.1/DTD/svg11.dtd"><svg t="1627031851588" class="icon" viewBox="0 0 1024 1024" version="1.1" xmlns="http://www.w3.org/2000/svg" p-id="127114" width="18" height="18" xmlns:xlink="http://www.w3.org/1999/xlink"><defs><style type="text/css"></style></defs><path d="M736 554.666667a181.333333 181.333333 0 0 1 181.333333 181.333333V874.666667a42.666667 42.666667 0 0 1-42.666666 42.666666H149.333333a42.666667 42.666667 0 0 1-42.666666-42.666666v-138.666667a181.333333 181.333333 0 0 1 181.333333-181.333333h448zM512 85.333333a170.666667 170.666667 0 0 1 170.666667 170.666667v85.333333a170.666667 170.666667 0 1 1-341.333334 0v-85.333333a170.666667 170.666667 0 0 1 170.666667-170.666667z" fill="#666666" p-id="127115"></path></svg>