<?xml version="1.0" standalone="no"?><!DOCTYPE svg PUBLIC "-//W3C//DTD SVG 1.1//EN" "http://www.w3.org/Graphics/SVG/1.1/DTD/svg11.dtd"><svg t="1627033037701" class="icon" viewBox="0 0 1024 1024" version="1.1" xmlns="http://www.w3.org/2000/svg" p-id="30178" width="16" height="16" xmlns:xlink="http://www.w3.org/1999/xlink"><defs><style type="text/css">@font-face { font-family: feedback-iconfont; src: url("//at.alicdn.com/t/font_1031158_1uhr8ri0pk5.eot?#iefix") format("embedded-opentype"), url("//at.alicdn.com/t/font_1031158_1uhr8ri0pk5.woff2") format("woff2"), url("//at.alicdn.com/t/font_1031158_1uhr8ri0pk5.woff") format("woff"), url("//at.alicdn.com/t/font_1031158_1uhr8ri0pk5.ttf") format("truetype"), url("//at.alicdn.com/t/font_1031158_1uhr8ri0pk5.svg#iconfont") format("svg"); }
</style></defs><path d="M197.17984 287.424h63.68v414.272H197.17984z" p-id="30179" fill="#333333"></path><path d="M260.85984 288H197.17984c0 135.424 131.392 242.176 290.56 242.176h5.312c127.744 0 227.008 81.6 227.008 178.496h63.872c0-135.424-131.584-242.176-290.88-242.176h-5.12c-126.72 0-227.072-81.6-227.072-178.56z m-31.936 407.168a162.816 162.816 0 1 0-0.384 325.568 162.816 162.816 0 0 0 0.384-325.568z m0 63.68a98.944 98.944 0 1 1 0 197.824 98.944 98.944 0 0 1 0-197.824z" p-id="30180" fill="#333333"></path><path d="M751.99584 695.168a162.816 162.816 0 1 0-0.384 325.568 162.816 162.816 0 0 0 0.384-325.568z m0 63.68a98.944 98.944 0 1 1 0 197.824 98.944 98.944 0 0 1 0-197.824zM228.92384 0.512a162.56 162.56 0 1 0 0 325.248 162.56 162.56 0 0 0 0-325.248z m0 63.744a98.944 98.944 0 1 1 0 197.76 98.944 98.944 0 0 1 0-197.76z" p-id="30181" fill="#333333"></path></svg>