<?xml version="1.0" standalone="no"?><!DOCTYPE svg PUBLIC "-//W3C//DTD SVG 1.1//EN" "http://www.w3.org/Graphics/SVG/1.1/DTD/svg11.dtd"><svg class="icon" style="width: 5em; height: 5em;vertical-align: middle;fill: #C0C6D6;overflow: hidden;" viewBox="0 0 1024 1024" version="1.1" xmlns="http://www.w3.org/2000/svg"><path d="M896 512c0 211.2-172.8 384-384 384s-384-172.8-384-384 172.8-384 384-384 384 172.8 384 384m64 0c0-249.6-198.4-448-448-448S64 262.4 64 512s198.4 448 448 448 448-198.4 448-448z"  /><path d="M736 480h-192v-192c0-19.2-12.8-32-32-32s-32 12.8-32 32v192h-192c-12.8 0-32 12.8-32 32s12.8 32 32 32h192v192c0 12.8 12.8 32 32 32s32-12.8 32-32v-192h192c12.8 0 32-12.8 32-32s-19.2-32-32-32z"  /></svg>