<?xml version="1.0" standalone="no"?><!DOCTYPE svg PUBLIC "-//W3C//DTD SVG 1.1//EN" "http://www.w3.org/Graphics/SVG/1.1/DTD/svg11.dtd"><svg t="1630466630147" class="icon" viewBox="0 0 1024 1024" version="1.1" xmlns="http://www.w3.org/2000/svg" p-id="15246" width="20" height="20" xmlns:xlink="http://www.w3.org/1999/xlink"><defs><style type="text/css"></style></defs><path d="M999.176 906.085L608.194 515.103l397.188-397.188c24.824-24.824 24.824-68.267 0-93.09C974.352 0 930.909 0 906.085 24.824L515.103 422.011 117.915 24.824C93.091 0 49.648 0 24.825 24.824 0 49.648-6.207 93.091 24.824 117.915l397.187 397.188L24.824 912.291C0 930.909 0 974.35 24.824 999.176c24.824 24.824 68.267 24.824 93.091 0l397.188-397.188 397.188 397.188c12.412 12.412 31.03 18.618 43.442 18.618s31.03-6.206 43.443-18.618c31.03-24.824 31.03-68.267 0-93.091z" p-id="15247"></path></svg>