<?xml version="1.0" standalone="no"?><!DOCTYPE svg PUBLIC "-//W3C//DTD SVG 1.1//EN" "http://www.w3.org/Graphics/SVG/1.1/DTD/svg11.dtd"><svg class="icon" style="width: 5em; height: 5em;vertical-align: middle;fill: #ffffff;overflow: hidden;" viewBox="0 0 1024 1024" version="1.1" xmlns="http://www.w3.org/2000/svg"><path d="M571.837 735.855V384.093c0-40.993 64.04-40.993 64.04 0v351.762c0 40.997-64.04 40.997-64.04 0z m-192.183 0V384.093c0-40.993 64.071-40.993 64.071 0v351.762c0.001 40.997-64.071 40.997-64.071 0z m544.497-511.66H764.019v-63.983c0-52.97-43.068-95.917-95.1-95.917H347.632c-53.052 0-96.087 42.947-96.087 95.917v63.982H91.41c-41.054 0-41.054 63.925 0 63.925h832.74c41.024 0 41.024-63.925 0-63.925z m-608.537-63.978c0-16.992 15.005-31.997 32.017-31.997H668.92c17.012 0 31.027 13 31.027 31.997v63.977H315.614v-63.977zM731.97 959.705H283.56c-53.026 0-96.057-42.941-96.057-95.912v-479.7c0-18.998 15.005-31.992 32.018-31.992 17.017 0 32.022 12.995 32.022 31.992v479.7c0 16.954 15.03 31.96 32.017 31.96H731.97c17.011 0 32.049-15.005 32.049-31.96v-478.71c0-41.984 64.04-41.984 64.04 0v478.71c0 52.97-43.036 95.912-96.09 95.912z m0 0" /></svg>