<?xml version="1.0" standalone="no"?><!DOCTYPE svg PUBLIC "-//W3C//DTD SVG 1.1//EN" "http://www.w3.org/Graphics/SVG/1.1/DTD/svg11.dtd"><svg class="icon" style="width: 5em; height: 5em;vertical-align: middle;fill: #ffffff;overflow: hidden;" viewBox="0 0 1024 1024" version="1.1" xmlns="http://www.w3.org/2000/svg"><path d="M480 224a32 32 0 0 1 64 0v448a32 32 0 0 1-64 0zM800 832V672a32 32 0 0 1 64 0v192a32 32 0 0 1-32 32H192a32 32 0 0 1-32-32V672a32 32 0 0 1 64 0v160zM648.32 522.24a32 32 0 1 1 47.36 43.52l-176 192a32 32 0 0 1-47.36 0l-176-192a32 32 0 1 1 47.36-43.52L496 688.64z" /></svg>