<?xml version="1.0" standalone="no"?><!DOCTYPE svg PUBLIC "-//W3C//DTD SVG 1.1//EN" "http://www.w3.org/Graphics/SVG/1.1/DTD/svg11.dtd"><svg t="1631873200973" class="icon" viewBox="0 0 1024 1024" version="1.1" xmlns="http://www.w3.org/2000/svg" p-id="30789" width="20" height="20" xmlns:xlink="http://www.w3.org/1999/xlink"><defs><style type="text/css"></style></defs><path d="M306.732615 0H38.602057C17.281683 0 0.002 17.279683 0.002 38.595058v270.572371c0 10.555195 8.665339 19.300529 19.300529 19.300529h57.97058c10.639189 0 19.299529-8.665339 19.299528-19.300529V96.567638h210.159978c10.62919 0 19.294529-8.66034 19.294529-19.294529v-57.97558C325.982147 8.65734 317.372804 0.041997 306.732615 0z m697.889793 695.528973h-57.889587c-10.641189 0.043997-19.260532 8.65934-19.299529 19.299528v212.599792H717.272315c-10.640189 0.039997-19.249532 8.66034-19.295529 19.299528v57.97158c0 10.635189 8.665339 19.300529 19.295529 19.300529h268.050564c21.319375 0.039997 38.635054-17.200689 38.681051-38.521063V714.748507c-0.045996-10.640189-8.66034-19.249532-19.301529-19.295528l-0.079993 0.075994zM306.732615 927.428293H96.572637V714.828501c-0.039997-10.640189-8.66034-19.255532-19.299528-19.299528H19.302529C8.66234 695.572969 0.046997 704.188313 0.002 714.828501v270.495378c0 21.425367 17.330679 38.676051 38.600057 38.676051h268.130558c10.62919 0 19.294529-8.665339 19.294529-19.300529V946.727821c-0.044997-10.639189-8.65434-19.259532-19.294529-19.299528zM985.322879 0H717.272315c-10.640189 0.041997-19.249532 8.65734-19.295529 19.297529v57.97558c0 10.634189 8.665339 19.294529 19.295529 19.294529h210.161977v212.599791c0 10.555195 8.65834 19.300529 19.299529 19.300529h57.96958c10.635189 0 19.301528-8.665339 19.301529-19.300529V38.595058C1024.00393 17.279683 1006.722247 0 985.403873 0h-0.080994z" fill="#5093E1" p-id="30790"></path></svg>